<svg width="64" height="64" viewBox="0 0 64 64" fill="none" xmlns="http://www.w3.org/2000/svg">
  <defs>
    <linearGradient id="dataGradient" x1="0%" y1="0%" x2="100%" y2="100%">
      <stop offset="0%" style="stop-color:#3B82F6;stop-opacity:1" />
      <stop offset="50%" style="stop-color:#6366F1;stop-opacity:1" />
      <stop offset="100%" style="stop-color:#8B5CF6;stop-opacity:1" />
    </linearGradient>
  </defs>
  
  <!-- Background -->
  <circle cx="32" cy="32" r="30" fill="url(#dataGradient)" opacity="0.1"/>
  
  <!-- Database/server -->
  <ellipse cx="32" cy="20" rx="16" ry="6" fill="url(#dataGradient)" opacity="0.8"/>
  <rect x="16" y="20" width="32" height="16" fill="url(#dataGradient)" opacity="0.6"/>
  <ellipse cx="32" cy="36" rx="16" ry="6" fill="url(#dataGradient)" opacity="0.8"/>
  
  <!-- Data flow lines -->
  <path d="M32 42L32 48" stroke="#06B6D4" stroke-width="3" stroke-linecap="round"/>
  <path d="M28 50L32 54L36 50" stroke="#06B6D4" stroke-width="3" stroke-linecap="round" stroke-linejoin="round"/>
  
  <!-- Insight bulb -->
  <circle cx="50" cy="14" r="10" fill="#F59E0B" opacity="0.9"/>
  <path d="M47 11L50 14L53 11" stroke="white" stroke-width="2" stroke-linecap="round" stroke-linejoin="round"/>
  <path d="M47 17L53 17" stroke="white" stroke-width="2" stroke-linecap="round"/>
  
  <!-- Binary data representation -->
  <circle cx="22" cy="25" r="1.5" fill="white"/>
  <circle cx="26" cy="25" r="1.5" fill="white"/>
  <circle cx="30" cy="25" r="1.5" fill="white"/>
  <circle cx="34" cy="25" r="1.5" fill="white"/>
  <circle cx="38" cy="25" r="1.5" fill="white"/>
  <circle cx="42" cy="25" r="1.5" fill="white"/>
</svg>
