<svg width="64" height="64" viewBox="0 0 64 64" fill="none" xmlns="http://www.w3.org/2000/svg">
  <defs>
    <linearGradient id="designGradient" x1="0%" y1="0%" x2="100%" y2="100%">
      <stop offset="0%" style="stop-color:#06B6D4;stop-opacity:1" />
      <stop offset="100%" style="stop-color:#3B82F6;stop-opacity:1" />
    </linearGradient>
  </defs>
  <circle cx="32" cy="32" r="30" fill="url(#designGradient)" opacity="0.1"/>
  <path d="M20 16C18.8954 16 18 16.8954 18 18V44C18 45.1046 18.8954 46 20 46H36C37.1046 46 38 45.1046 38 44V22L32 16H20Z" fill="url(#designGradient)"/>
  <path d="M32 16V22H38" stroke="white" stroke-width="2" stroke-linecap="round" stroke-linejoin="round"/>
  <circle cx="44" cy="20" r="8" fill="#8B5CF6" opacity="0.8"/>
  <path d="M41 20L43 22L47 18" stroke="white" stroke-width="2" stroke-linecap="round" stroke-linejoin="round"/>
  <rect x="22" y="26" width="10" height="2" rx="1" fill="white" opacity="0.8"/>
  <rect x="22" y="30" width="14" height="2" rx="1" fill="white" opacity="0.6"/>
  <rect x="22" y="34" width="8" height="2" rx="1" fill="white" opacity="0.4"/>
</svg>
